<svg width="100" height="100" viewBox="0 0 100 100" fill="none" xmlns="http://www.w3.org/2000/svg">
<g clip-path="url(#clip0_189_37)">
<path d="M54.4333 27.8543L57.5375 26.5793C60.0583 25.5793 63.3167 24.5585 67.1625 25.2043C75.0417 26.5293 80.475 30.7835 83.7125 36.4252C84.9625 38.6002 83.9542 41.4668 81.6208 42.3793C79.6219 43.1613 77.9132 44.5414 76.7282 46.3312C75.5433 48.1209 74.9399 50.2328 75.0005 52.3784C75.0612 54.524 75.7829 56.5985 77.067 58.3185C78.3512 60.0384 80.1351 61.3198 82.175 61.9877C84.3333 62.696 85.55 65.0918 84.8417 67.2502C83 72.8418 80.35 78.0043 77.2125 82.171C74.1125 86.2877 70.3292 89.7043 66.1167 91.3752C63.3667 92.4585 60.4167 92.0543 57.5958 91.3543L55.9208 90.9085L53.4333 90.1877C52.3042 89.8585 51.1417 89.5752 50 89.5752C48.8542 89.5752 47.6958 89.8585 46.5667 90.1877L44.0792 90.9085L42.4042 91.3543C39.5833 92.0543 36.6292 92.4627 33.8833 91.3752C28.5792 89.2752 23.9 84.3752 20.3625 78.596C16.5328 72.2319 14.0061 65.1701 12.9292 57.821C11.9833 51.346 12.4958 44.0752 15.4917 37.9252C18.575 31.5877 24.225 26.6543 32.8375 25.2043C36.3375 24.6168 39.3458 25.4043 41.7542 26.3085L43.1333 26.8502L45.5667 27.8543C47.2333 28.5085 48.5458 28.8918 50 28.8918C51.45 28.8918 52.7667 28.5085 54.4333 27.8543ZM49.0333 11.5335C53.1 7.46267 59.3458 7.11267 60.8167 8.58767C62.2917 10.0585 61.9417 16.3043 57.8708 20.371C53.8042 24.4377 47.5583 24.7877 46.0875 23.3168C44.6125 21.846 44.9625 15.6002 49.0333 11.5335Z" fill="white"/>
</g>
<defs>
<clipPath id="clip0_189_37">
<rect width="100" height="100" fill="white"/>
</clipPath>
</defs>
</svg>
