<svg width="100" height="100" viewBox="0 0 100 100" fill="none" xmlns="http://www.w3.org/2000/svg">
<path d="M86.5859 52.2107L58.4609 80.3357C57.8746 80.9221 57.0793 81.2515 56.25 81.2515C55.4207 81.2515 54.6254 80.9221 54.0391 80.3357C53.4527 79.7493 53.1233 78.954 53.1233 78.1248C53.1233 77.2955 53.4527 76.5002 54.0391 75.9138L76.832 53.1248H15.625C14.7962 53.1248 14.0013 52.7955 13.4153 52.2095C12.8292 51.6234 12.5 50.8286 12.5 49.9998C12.5 49.171 12.8292 48.3761 13.4153 47.7901C14.0013 47.204 14.7962 46.8748 15.625 46.8748H76.832L54.0391 24.0857C53.4527 23.4993 53.1233 22.704 53.1233 21.8748C53.1233 21.0455 53.4527 20.2502 54.0391 19.6638C54.6254 19.0775 55.4207 18.748 56.25 18.748C57.0793 18.748 57.8746 19.0775 58.4609 19.6638L86.5859 47.7888C86.8765 48.0791 87.107 48.4237 87.2643 48.8031C87.4215 49.1825 87.5025 49.5891 87.5025 49.9998C87.5025 50.4105 87.4215 50.8171 87.2643 51.1965C87.107 51.5758 86.8765 51.9205 86.5859 52.2107Z" fill="white"/>
</svg>
