<svg width="100" height="100" viewBox="0 0 100 100" fill="none" xmlns="http://www.w3.org/2000/svg">
<g clip-path="url(#clip0_135_12)">
<path d="M25.1917 48.6543C28.6815 42.7588 34.012 38.1735 40.3629 35.604C46.7138 33.0345 53.7331 32.6232 60.3406 34.4335C66.9481 36.2438 72.7777 40.1752 76.9321 45.6229C81.0865 51.0705 83.3356 57.7324 83.3333 64.5834C83.3333 65.6885 83.7723 66.7483 84.5537 67.5297C85.3351 68.3111 86.3949 68.7501 87.5 68.7501C88.6051 68.7501 89.6649 68.3111 90.4463 67.5297C91.2277 66.7483 91.6667 65.6885 91.6667 64.5834C91.6672 56.2032 89.008 48.0389 84.0721 41.2665C79.1361 34.4941 72.1781 29.463 64.2001 26.8977C56.2222 24.3324 47.6358 24.3654 39.6778 26.9918C31.7197 29.6182 24.8005 34.7025 19.9167 41.5126L17.6792 28.8251C17.4874 27.7366 16.8711 26.7689 15.9659 26.1348C15.0606 25.5007 13.9406 25.2521 12.8521 25.4439C11.7636 25.6356 10.7958 26.2519 10.1617 27.1571C9.52762 28.0624 9.27909 29.1824 9.47082 30.2709L13.8125 54.8918C14.0057 55.9798 14.6232 56.9465 15.5292 57.5793C16.1195 57.9752 16.7939 58.2283 17.499 58.3187C18.2041 58.4091 18.9205 58.3343 19.5917 58.1001L43.2583 53.9293C44.3468 53.7375 45.3146 53.1213 45.9487 52.216C46.5828 51.3108 46.8313 50.1907 46.6396 49.1022C46.4478 48.0137 45.8316 47.0459 44.9263 46.4118C44.0211 45.7777 42.901 45.5292 41.8125 45.7209L25.1917 48.6543Z" fill="white"/>
</g>
<defs>
<clipPath id="clip0_135_12">
<rect width="100" height="100" fill="white"/>
</clipPath>
</defs>
</svg>
