<svg width="100" height="100" viewBox="0 0 100 100" fill="none" xmlns="http://www.w3.org/2000/svg">
<g clip-path="url(#clip0_135_8)">
<path d="M74.8083 48.6543C71.3185 42.7588 65.9879 38.1735 59.6371 35.604C53.2862 33.0345 46.2669 32.6232 39.6594 34.4335C33.0519 36.2438 27.2223 40.1752 23.0679 45.6229C18.9135 51.0705 16.6644 57.7324 16.6667 64.5834C16.6667 65.6885 16.2277 66.7483 15.4463 67.5297C14.6649 68.3111 13.6051 68.7501 12.5 68.7501C11.3949 68.7501 10.3351 68.3111 9.55373 67.5297C8.77233 66.7483 8.33334 65.6885 8.33334 64.5834C8.3328 56.2032 10.992 48.0389 15.9279 41.2665C20.8639 34.4941 27.8219 29.463 35.7998 26.8977C43.7778 24.3324 52.3641 24.3654 60.3222 26.9918C68.2803 29.6182 75.1995 34.7025 80.0833 41.5126L82.3208 28.8251C82.4158 28.2861 82.6159 27.7711 82.9099 27.3095C83.2039 26.8479 83.5859 26.4487 84.0341 26.1348C84.4823 25.8208 84.988 25.5982 85.5223 25.4796C86.0566 25.3611 86.609 25.3489 87.1479 25.4439C87.6869 25.5388 88.2019 25.739 88.6635 26.0329C89.1251 26.3269 89.5243 26.7089 89.8383 27.1571C90.1523 27.6054 90.3749 28.111 90.4934 28.6453C90.612 29.1796 90.6241 29.732 90.5292 30.2709L86.1875 54.8918C85.9943 55.9798 85.3768 56.9465 84.4708 57.5793C83.8805 57.9752 83.2061 58.2283 82.501 58.3187C81.7959 58.4091 81.0795 58.3343 80.4083 58.1001L56.7417 53.9293C55.6532 53.7375 54.6854 53.1213 54.0513 52.216C53.4172 51.3108 53.1687 50.1907 53.3604 49.1022C53.5522 48.0137 54.1684 47.0459 55.0737 46.4118C55.9789 45.7777 57.099 45.5292 58.1875 45.7209L74.8083 48.6543Z" fill="white"/>
</g>
<defs>
<clipPath id="clip0_135_8">
<rect width="100" height="100" fill="white"/>
</clipPath>
</defs>
</svg>
