<svg width="91" height="100" viewBox="0 0 91 100" fill="none" xmlns="http://www.w3.org/2000/svg">
<g clip-path="url(#clip0_189_41)">
<path d="M42.2452 47.6733L0.374878 91.5408C0.845078 93.2072 1.69004 94.7439 2.84518 96.0336C4.00031 97.3233 5.43504 98.3319 7.03968 98.9821C8.64432 99.6324 10.3764 99.9071 12.1035 99.7854C13.8306 99.6636 15.507 99.1486 17.0046 98.2797L64.1166 71.4479L42.2452 47.6733Z" fill="#EA4335"/>
<path d="M84.5834 40.2171L64.2106 28.5479L41.2784 48.6715L64.3039 71.3853L84.5215 59.8411C86.3126 58.9033 87.8128 57.4931 88.8595 55.7635C89.9062 54.0338 90.4596 52.0507 90.4596 50.0289C90.4596 48.0072 89.9062 46.0241 88.8595 44.2944C87.8128 42.5648 86.3126 41.1546 84.5215 40.2168L84.5834 40.2171Z" fill="#FBBC04"/>
<path d="M0.374889 8.29932C0.121806 9.23495 -0.00417782 10.2004 0.000330455 11.1696V88.6703C0.00295442 89.6392 0.128817 90.6039 0.374889 91.541L43.6805 48.7968L0.374889 8.29932Z" fill="#4285F4"/>
<path d="M42.5572 49.9202L64.2102 28.5481L17.1607 1.59119C15.3905 0.554464 13.3772 0.00543556 11.3258 2.16715e-05C6.23495 -0.00987232 1.75933 3.36893 0.374878 8.26822L42.5572 49.9202Z" fill="#34A853"/>
</g>
<defs>
<clipPath id="clip0_189_41">
<rect width="90.46" height="100" fill="white"/>
</clipPath>
</defs>
</svg>
