<svg width="100" height="100" viewBox="0 0 100 100" fill="none" xmlns="http://www.w3.org/2000/svg">
<path fill-rule="evenodd" clip-rule="evenodd" d="M50 29.1665C44.4746 29.1665 39.1756 31.3614 35.2686 35.2684C31.3616 39.1755 29.1666 44.4745 29.1666 49.9998C29.1666 55.5252 31.3616 60.8242 35.2686 64.7312C39.1756 68.6382 44.4746 70.8332 50 70.8332C55.5253 70.8332 60.8243 68.6382 64.7313 64.7312C68.6384 60.8242 70.8333 55.5252 70.8333 49.9998C70.8333 44.4745 68.6384 39.1755 64.7313 35.2684C60.8243 31.3614 55.5253 29.1665 50 29.1665ZM37.5 49.9998C37.5 53.315 38.8169 56.4945 41.1611 58.8387C43.5053 61.1829 46.6848 62.4998 50 62.4998C53.3152 62.4998 56.4946 61.1829 58.8388 58.8387C61.183 56.4945 62.5 53.315 62.5 49.9998C62.5 46.6846 61.183 43.5052 58.8388 41.161C56.4946 38.8168 53.3152 37.4998 50 37.4998C46.6848 37.4998 43.5053 38.8168 41.1611 41.161C38.8169 43.5052 37.5 46.6846 37.5 49.9998Z" fill="white"/>
<path d="M74.9999 20.833C73.8948 20.833 72.835 21.272 72.0536 22.0534C71.2722 22.8348 70.8333 23.8946 70.8333 24.9997C70.8333 26.1047 71.2722 27.1646 72.0536 27.946C72.835 28.7274 73.8948 29.1663 74.9999 29.1663C76.105 29.1663 77.1648 28.7274 77.9462 27.946C78.7276 27.1646 79.1666 26.1047 79.1666 24.9997C79.1666 23.8946 78.7276 22.8348 77.9462 22.0534C77.1648 21.272 76.105 20.833 74.9999 20.833Z" fill="white"/>
<path fill-rule="evenodd" clip-rule="evenodd" d="M20.8333 4.1665C16.413 4.1665 12.1738 5.92245 9.04818 9.04806C5.92257 12.1737 4.16663 16.4129 4.16663 20.8332V79.1665C4.16663 83.5868 5.92257 87.826 9.04818 90.9516C12.1738 94.0772 16.413 95.8332 20.8333 95.8332H79.1666C83.5869 95.8332 87.8261 94.0772 90.9517 90.9516C94.0773 87.826 95.8333 83.5868 95.8333 79.1665V20.8332C95.8333 16.4129 94.0773 12.1737 90.9517 9.04806C87.8261 5.92245 83.5869 4.1665 79.1666 4.1665H20.8333ZM79.1666 12.4998H20.8333C18.6232 12.4998 16.5035 13.3778 14.9407 14.9406C13.3779 16.5034 12.5 18.623 12.5 20.8332V79.1665C12.5 81.3766 13.3779 83.4963 14.9407 85.0591C16.5035 86.6219 18.6232 87.4998 20.8333 87.4998H79.1666C81.3768 87.4998 83.4964 86.6219 85.0592 85.0591C86.622 83.4963 87.5 81.3766 87.5 79.1665V20.8332C87.5 18.623 86.622 16.5034 85.0592 14.9406C83.4964 13.3778 81.3768 12.4998 79.1666 12.4998Z" fill="white"/>
</svg>
