<svg width="100" height="100" viewBox="0 0 100 100" fill="none" xmlns="http://www.w3.org/2000/svg">
<g clip-path="url(#clip0_187_33)">
<path fill-rule="evenodd" clip-rule="evenodd" d="M91 25.2331C91.1817 24.1303 91.0644 22.9989 90.6602 21.9568C90.2561 20.9147 89.5798 20.0001 88.702 19.3082C87.8242 18.6163 86.7769 18.1725 85.6692 18.023C84.5615 17.8735 83.434 18.0237 82.4042 18.4581L11.1542 48.4581C6.18749 50.5498 5.93333 57.7331 11.1542 59.8998C16.3238 62.0558 21.5688 64.0265 26.8792 65.8081C31.7458 67.4165 37.0542 68.904 41.3083 69.3248C42.4708 70.7165 43.9333 72.0581 45.425 73.2831C47.7042 75.1581 50.4458 77.0873 53.2792 78.9373C58.9542 82.6456 65.25 86.1915 69.4917 88.4998C74.5625 91.2498 80.6333 88.0831 81.5417 82.554L91 25.2331ZM19.1417 54.1373L82.1583 27.604L73.3333 81.104C69.1708 78.8415 63.175 75.454 57.8333 71.9623C55.3714 70.3816 52.9945 68.6723 50.7125 66.8415C50.1025 66.3432 49.5105 65.8235 48.9375 65.2831L65.4417 48.7831C66.2235 48.0018 66.6629 46.942 66.6633 45.8367C66.6637 44.7314 66.225 43.6712 65.4437 42.8894C64.6625 42.1075 63.6026 41.6681 62.4973 41.6677C61.392 41.6673 60.3318 42.106 59.55 42.8873L41.4792 60.9581C38.4208 60.5665 34.1625 59.4331 29.4875 57.8915C26.0071 56.732 22.5586 55.4788 19.1458 54.1331L19.1417 54.1373Z" fill="white"/>
</g>
<defs>
<clipPath id="clip0_187_33">
<rect width="100" height="100" fill="white"/>
</clipPath>
</defs>
</svg>
