<svg width="100" height="100" viewBox="0 0 100 100" fill="none" xmlns="http://www.w3.org/2000/svg">
<path d="M45.8334 8.3335V35.0585C40.0639 33.9877 34.1045 34.7212 28.7669 37.1592C23.4292 39.5972 18.9728 43.6212 16.0044 48.6831C13.0361 53.745 11.7001 59.5988 12.1784 65.4473C12.6567 71.2959 14.926 76.8548 18.6774 81.3672C22.4288 85.8796 27.4798 89.126 33.1426 90.6643C38.8054 92.2027 44.8048 91.9582 50.3237 89.9642C55.8426 87.9702 60.6127 84.3236 63.9845 79.521C67.3563 74.7184 69.1659 68.9932 69.1667 63.1252V47.5585C73.6459 49.4632 78.4661 50.4357 83.3334 50.4168H87.5001V27.0835H83.3334C75.4042 27.0835 69.1667 20.6793 69.1667 12.5002V8.3335H45.8334ZM54.1667 16.6668H61.2001C62.8417 25.9168 69.8667 33.3168 79.1667 35.0418V41.7835C74.8417 41.1502 70.9376 39.5252 67.3209 37.1043L60.8334 32.7627V63.1252C60.833 67.1663 59.6211 71.1145 57.354 74.4599C55.087 77.8052 51.8691 80.3941 48.1158 81.892C44.3626 83.39 40.2464 83.7283 36.2989 82.8631C32.3515 81.998 28.7541 79.9693 25.9713 77.0389C23.1886 74.1085 21.3483 70.4112 20.6882 66.4243C20.028 62.4374 20.5784 58.3442 22.2682 54.6733C23.958 51.0024 26.7095 47.9225 30.1675 45.8312C33.6254 43.74 37.631 42.7335 41.6667 42.9418V49.6252C38.952 49.4157 36.2372 50.0295 33.8766 51.3864C31.5161 52.7432 29.6193 54.7802 28.434 57.2314C27.2486 59.6826 26.8297 62.4342 27.232 65.1271C27.6342 67.82 28.8388 70.3292 30.6887 72.327C32.5386 74.3249 34.9478 75.7187 37.6018 76.3266C40.2559 76.9345 43.0315 76.7281 45.5665 75.7346C48.1016 74.741 50.2782 73.0063 51.8124 70.757C53.3466 68.5076 54.167 65.8479 54.1667 63.1252V16.6668ZM35.4167 63.1252C35.4167 61.7438 35.9655 60.4191 36.9422 59.4423C37.919 58.4656 39.2437 57.9168 40.6251 57.9168C42.0064 57.9168 43.3312 58.4656 44.3079 59.4423C45.2847 60.4191 45.8334 61.7438 45.8334 63.1252C45.8334 64.5065 45.2847 65.8313 44.3079 66.808C43.3312 67.7848 42.0064 68.3335 40.6251 68.3335C39.2437 68.3335 37.919 67.7848 36.9422 66.808C35.9655 65.8313 35.4167 64.5065 35.4167 63.1252Z" fill="white"/>
</svg>
