<svg width="100" height="100" viewBox="0 0 100 100" fill="none" xmlns="http://www.w3.org/2000/svg">
<g clip-path="url(#clip0_187_29)">
<path fill-rule="evenodd" clip-rule="evenodd" d="M74.2376 29.1208C72.7667 27.0042 68.8334 24.0292 62.4626 25.3125C58.7459 26.0583 56.5251 27.8958 55.1126 30.3208C53.6084 32.9042 52.8792 36.4167 52.8792 40.5042C52.8792 41.6092 52.4402 42.669 51.6588 43.4504C50.8774 44.2319 49.8176 44.6708 48.7126 44.6708C38.8542 44.6708 29.4709 41.7417 21.5751 33.8208C20.9789 37.0346 20.7441 40.3049 20.8751 43.5708C21.0959 48.0958 22.1751 52.6333 24.7376 56.5208C27.2584 60.3417 31.4042 63.8417 38.3376 66.0417C39.0169 66.2572 39.6297 66.6434 40.1172 67.1633C40.6047 67.6832 40.9507 68.3195 41.1221 69.0114C41.2935 69.7032 41.2846 70.4274 41.0961 71.1148C40.9077 71.8022 40.5461 72.4298 40.0459 72.9375C37.825 75.2154 35.308 77.1844 32.5626 78.7917C36.9792 79.25 41.2376 79.2833 45.1876 78.925C53.1876 78.2 59.5584 75.9125 63.5417 72.675C71.9292 65.875 76.4167 55.7333 75.5834 38.7417C75.4417 35.95 78.1376 32.9375 79.4376 30.65C77.4751 31.0167 75.5084 30.95 74.2376 29.1208ZM19.1417 20.7667C19.8961 20.679 20.6601 20.7992 21.3512 21.1142C22.0422 21.4293 22.634 21.9272 23.0626 22.5542C29.2126 31.55 36.5959 35.2917 44.7917 36.1417C45.1917 32.6375 46.1376 29.175 47.9167 26.125C50.5251 21.65 54.7667 18.3583 60.8251 17.1417C69.2001 15.4583 75.5751 18.4917 79.2709 22.2042L86.7376 20.8083C87.5189 20.6619 88.3258 20.7421 89.0631 21.0394C89.8003 21.3366 90.4372 21.8386 90.8984 22.486C91.3597 23.1335 91.6261 23.8993 91.6663 24.6933C91.7064 25.4872 91.5186 26.276 91.1251 26.9667L83.9584 39.5583C84.6126 57.7292 79.5626 70.4125 68.7959 79.15C63.0876 83.7833 54.9126 86.4125 45.9417 87.225C36.9001 88.0417 26.6792 87.0542 16.5209 84.0875C15.6529 83.8343 14.8909 83.3057 14.3497 82.5814C13.8086 81.8571 13.5177 80.9765 13.521 80.0724C13.5243 79.1682 13.8216 78.2897 14.368 77.5694C14.9144 76.8491 15.6803 76.326 16.5501 76.0792C21.6584 74.625 25.5501 73.3708 29.0626 71.175C24.0667 68.525 20.3876 65.0583 17.7834 61.1083C14.1667 55.6167 12.8251 49.4917 12.5584 43.9708C12.2917 38.45 13.0876 33.3333 13.9292 29.6458C14.4084 27.5417 14.9667 25.4333 15.7376 23.4167C16.0095 22.7058 16.4709 22.083 17.0717 21.6158C17.6726 21.1486 18.3858 20.855 19.1417 20.7667Z" fill="white"/>
</g>
<defs>
<clipPath id="clip0_187_29">
<rect width="100" height="100" fill="white"/>
</clipPath>
</defs>
</svg>
