<svg width="100" height="100" viewBox="0 0 100 100" fill="none" xmlns="http://www.w3.org/2000/svg">
<path d="M76.3672 50C76.3672 43.0664 72.1289 37.1289 66.1133 34.6289L62.9102 42.3242C65.918 43.5742 68.0273 46.543 68.0273 50.0195C68.0273 53.4766 65.918 56.4453 62.9102 57.7148L66.1133 65.4102C72.1289 62.8711 76.3672 56.9336 76.3672 50ZM72.5195 19.2383L69.3164 26.9336C78.3594 30.7031 84.707 39.6094 84.707 50C84.707 60.4102 78.3594 69.2969 69.3164 73.0664L72.5195 80.7617C84.5703 75.7422 93.0273 63.8672 93.0273 50C93.0273 36.1328 84.5703 24.2578 72.5195 19.2383ZM9.70703 29.1602V70.8203H26.3672L55.5273 100V0L26.3672 29.1602H9.70703Z" fill="white"/>
</svg>
