<svg width="200" height="200" viewBox="0 0 200 200" fill="none" xmlns="http://www.w3.org/2000/svg">
<g clip-path="url(#clip0_26409_311)">
<path d="M142.589 145.312C164.241 133.086 178.571 111.758 178.571 87.5C178.571 49.5313 143.393 18.75 100 18.75C56.6071 18.75 21.4286 49.5313 21.4286 87.5C21.4286 111.758 35.7589 133.047 57.4107 145.312C57.9464 152.07 59.1964 160.156 60.625 167.617L60.7143 168.008C25 154.609 0 123.633 0 87.5C0 39.1797 44.7768 0 100 0C155.223 0 200 39.1797 200 87.5C200 123.633 175 154.648 139.286 168.008L139.375 167.578C140.759 160.078 142.054 152.031 142.589 145.312ZM141.563 130.43C140.848 128.203 139.821 126.094 138.438 124.102C135.848 120.313 132.411 117.461 128.661 115.352C137.366 108.477 142.857 98.5547 142.857 87.5C142.857 66.7969 123.661 50 100 50C76.3393 50 57.1429 66.7969 57.1429 87.5C57.1429 98.5547 62.6339 108.516 71.3393 115.352C67.5893 117.461 64.1518 120.313 61.5625 124.102C60.1786 126.094 59.1518 128.203 58.4375 130.43C44.5536 120.117 35.7143 104.688 35.7143 87.5C35.7143 56.4453 64.5089 31.25 100 31.25C135.491 31.25 164.286 56.4453 164.286 87.5C164.286 104.688 155.446 120.117 141.563 130.43ZM100 121.875C114.687 121.875 128.571 125.234 128.571 138.984C128.571 151.875 122.812 179.648 119.375 190.898C117.098 198.32 108.437 200.039 100 200.039C91.5625 200.039 82.9464 198.32 80.625 190.898C77.1429 179.766 71.4286 151.953 71.4286 139.023C71.4286 125.312 85.3125 121.914 100 121.914V121.875ZM100 65.625C106.63 65.625 112.989 67.9297 117.678 72.032C122.366 76.1344 125 81.6984 125 87.5C125 93.3016 122.366 98.8656 117.678 102.968C112.989 107.07 106.63 109.375 100 109.375C93.3696 109.375 87.0107 107.07 82.3223 102.968C77.6339 98.8656 75 93.3016 75 87.5C75 81.6984 77.6339 76.1344 82.3223 72.032C87.0107 67.9297 93.3696 65.625 100 65.625Z" fill="white"/>
</g>
<defs>
<clipPath id="clip0_26409_311">
<rect width="200" height="200" fill="white"/>
</clipPath>
</defs>
</svg>
