<svg width="100" height="100" viewBox="0 0 100 100" fill="none" xmlns="http://www.w3.org/2000/svg">
<path d="M23.05 21.696C34.5979 21.121 43.5791 20.8335 49.9958 20.8335C56.4125 20.8335 65.3979 21.121 76.9521 21.6981C79.9755 21.849 82.8415 23.092 85.0178 25.1962C87.1941 27.3005 88.5328 30.1231 88.7854 33.1397C89.3146 39.4606 89.5791 45.0272 89.5791 49.8418C89.5791 54.7147 89.3083 60.3585 88.7666 66.7752C88.5152 69.7572 87.2022 72.5501 85.0663 74.6462C82.9304 76.7424 80.1133 78.0027 77.1271 78.1981C67.25 78.8439 58.2062 79.1668 49.9958 79.1668C41.7875 79.1668 32.7458 78.8439 22.875 78.1981C19.8897 78.0029 17.0734 76.7435 14.9377 74.6486C12.8019 72.5537 11.4883 69.7624 11.2354 66.7814C10.6875 60.3168 10.4125 54.6689 10.4125 49.8418C10.4125 45.071 10.6812 39.5022 11.2146 33.1335C11.4681 30.1175 12.8072 27.296 14.9834 25.1926C17.1596 23.0892 20.0251 21.8468 23.0479 21.696H23.05Z" stroke="white" stroke-width="8.33333" stroke-linejoin="round"/>
<path d="M43.75 40.8542V59.1792C43.7499 59.502 43.8372 59.8187 44.0027 60.0957C44.1682 60.3727 44.4058 60.5997 44.69 60.7525C44.9743 60.9054 45.2946 60.9783 45.617 60.9635C45.9394 60.9488 46.2517 60.8469 46.5208 60.6688L60.2646 51.5855C60.5102 51.4235 60.712 51.2034 60.8521 50.9447C60.9921 50.6859 61.066 50.3966 61.0672 50.1024C61.0685 49.8082 60.997 49.5182 60.8591 49.2583C60.7213 48.9984 60.5213 48.7766 60.2771 48.6126L46.5312 39.3709C46.2626 39.1904 45.95 39.0863 45.6267 39.0697C45.3035 39.0532 44.9818 39.1248 44.6961 39.2769C44.4105 39.4291 44.1715 39.656 44.0049 39.9335C43.8382 40.2109 43.7501 40.5285 43.75 40.8521V40.8542Z" stroke="white" stroke-width="7.14375" stroke-linejoin="round"/>
</svg>
